<svg width="384" height="240" viewBox="0 0 384 240" fill="none" xmlns="http://www.w3.org/2000/svg">
<path fill-rule="evenodd" clip-rule="evenodd" d="M323.258 30.6079C322.828 49.7993 336.477 58.8514 336.477 58.8514C336.477 58.8514 350.763 48.4252 351.179 29.7253C351.603 10.9924 335.903 0 335.903 0C335.903 0 323.677 11.4136 323.258 30.6079ZM297.522 76.2419C303.165 94.0737 319.771 99.9891 319.771 99.9891C319.771 99.9891 330.363 87.3958 324.588 69.0923C318.789 50.794 303.893 43.3663 303.893 43.3663C303.893 43.3663 291.89 58.413 297.522 76.2419ZM353.745 67.3494C342.773 83.1081 349.119 98.2741 349.119 98.2741C349.119 98.2741 366.75 97.5288 377.42 82.1494C388.124 66.7789 381.172 48.88 381.172 48.88C381.172 48.88 364.709 51.5769 353.745 67.3494ZM312.649 119.655C315.995 138.559 303.861 149.679 303.861 149.679C303.861 149.679 288.156 141.634 284.888 123.222C281.659 104.798 295.498 91.4451 295.498 91.4451C295.498 91.4451 309.299 100.762 312.649 119.655ZM285.064 152.671C283.5 133.513 270.647 122.94 270.647 122.94C270.647 122.94 255.611 134.935 257.134 153.587C258.657 172.239 273.505 181.73 273.505 181.73C273.505 181.73 286.619 171.816 285.064 152.671ZM233.754 211.563C233.754 211.563 222.254 198.18 226.151 179.857C230.059 161.536 247.905 154.386 247.905 154.386C247.905 154.386 257.153 168.24 253.162 187.045C249.16 205.847 233.754 211.563 233.754 211.563ZM338.838 136.579C338.838 136.579 337.257 120.199 352.342 108.371C367.463 96.5402 383.964 98.8188 383.964 98.8188C383.964 98.8188 385.353 118.013 370.618 129.546C355.879 141.089 338.838 136.579 338.838 136.579ZM335.27 148.007C317.93 156.202 315.848 172.534 315.848 172.534C315.848 172.534 331.471 180.71 348.371 172.752C365.272 164.794 368.177 145.746 368.177 145.746C368.177 145.746 352.615 139.838 335.27 148.007ZM288.153 199.942C288.153 199.942 295.058 184.983 314.037 182.452C333.04 179.916 346.057 190.273 346.057 190.273C346.057 190.273 337.543 207.55 319.05 210.022C300.543 212.502 288.153 199.942 288.153 199.942ZM307.11 222.832C307.11 222.832 295.383 210.992 276.249 211.217C257.122 211.456 248.519 225.478 248.519 225.478C248.519 225.478 259.311 239.439 277.962 239.226C296.626 238.958 307.11 222.832 307.11 222.832ZM331.75 69.0961L340.733 67.3117C340.916 68.2924 358.312 165.986 217.588 233.55L213.684 225.3C347.634 160.96 332.47 72.8031 331.75 69.0961ZM30.2582 68.1211C41.2304 83.8798 34.8836 99.0457 34.8836 99.0457C34.8836 99.0457 17.2534 98.3004 6.58262 82.9211C-4.121 67.5506 2.83116 49.6516 2.83116 49.6516C2.83116 49.6516 19.2939 52.3485 30.2582 68.1211ZM64.2303 100.761C64.2303 100.761 80.836 94.8456 86.4789 77.0138C92.1109 59.1849 80.1083 44.1382 80.1083 44.1382C80.1083 44.1382 65.2124 51.5659 59.4127 69.8642C53.638 88.1677 64.2303 100.761 64.2303 100.761ZM80.1404 150.45C80.1404 150.45 68.0057 139.331 71.3523 120.427C74.7019 101.534 88.5034 92.2168 88.5034 92.2168C88.5034 92.2168 102.342 105.57 99.1129 123.994C95.8454 142.405 80.1404 150.45 80.1404 150.45ZM113.357 123.712C113.357 123.712 100.504 134.285 98.9401 153.443C97.3846 172.588 110.499 182.502 110.499 182.502C110.499 182.502 125.347 173.011 126.87 154.359C128.393 135.706 113.357 123.712 113.357 123.712ZM157.85 180.628C161.747 198.951 150.247 212.335 150.247 212.335C150.247 212.335 134.841 206.619 130.839 187.817C126.848 169.012 136.096 155.157 136.096 155.157C136.096 155.157 153.942 162.308 157.85 180.628ZM47.5219 59.623C47.5219 59.623 61.1713 50.5709 60.741 31.3796C60.3217 12.1853 48.0963 0.77166 48.0963 0.77166C48.0963 0.77166 32.3956 11.7641 32.8202 30.497C33.236 49.1969 47.5219 59.623 47.5219 59.623ZM31.6572 109.142C46.7423 120.97 45.161 137.35 45.161 137.35C45.161 137.35 28.1196 141.861 13.3811 130.317C-1.35445 118.785 0.0349762 99.5904 0.0349762 99.5904C0.0349762 99.5904 16.5363 97.3118 31.6572 109.142ZM68.1527 173.305C68.1527 173.305 66.0705 156.973 48.731 148.779C31.3864 140.61 15.8241 146.518 15.8241 146.518C15.8241 146.518 18.7295 165.566 35.6297 173.524C52.5299 181.482 68.1527 173.305 68.1527 173.305ZM69.9673 183.223C88.9461 185.755 95.8513 200.714 95.8513 200.714C95.8513 200.714 83.4608 213.274 64.9537 210.794C46.4605 208.321 37.9465 191.044 37.9465 191.044C37.9465 191.044 50.9637 180.687 69.9673 183.223ZM107.752 211.989C88.6175 211.764 76.8911 223.604 76.8911 223.604C76.8911 223.604 87.3745 239.729 106.039 239.997C124.69 240.211 135.482 226.25 135.482 226.25C135.482 226.25 126.879 212.228 107.752 211.989ZM43.2693 68.0834L52.2519 69.8678C51.5323 73.5748 36.3678 161.732 170.318 226.072L166.414 234.322C25.6897 166.758 43.0862 69.064 43.2693 68.0834Z" fill="url(#paint0_linear)"/>
<defs>
<linearGradient id="paint0_linear" x1="196.961" y1="0" x2="196.961" y2="240" gradientUnits="userSpaceOnUse">
<stop stop-color="#DCDDE0"/>
<stop offset="1" stop-color="#DCDDE0" stop-opacity="0"/>
</linearGradient>
</defs>
</svg>
