<svg width="2346" height="495" viewBox="0 0 2346 495" fill="none" xmlns="http://www.w3.org/2000/svg">
<g clip-path="url(#clip0)">
<path d="M1006.97 218.281L972.978 382.952H884.429L918.421 218.281C921.085 205.338 919.54 202.952 906.993 202.952H875.025C862.558 202.952 859.947 205.338 857.31 217.952C857.31 217.952 857.31 218.172 857.31 218.281L823.318 382.952H734.689L768.707 218.281C771.371 205.338 769.826 202.952 757.252 202.952H725.285C712.711 202.952 710.181 205.366 707.517 218.281L673.498 382.952H584.949L637.135 130.174H709.062L720.463 151.892C727.022 144.783 734.961 139.176 743.765 135.434C752.568 131.692 762.037 129.9 771.558 130.174H789.912C824.544 130.174 847.906 145.667 856.271 171.856C871.749 142.733 894.179 130.174 921.271 130.174H939.652C991.679 130.174 1018.13 164.753 1006.97 218.281Z" fill="#5965E0"/>
<path d="M1277.01 218.282L1261.22 294.845C1250.16 348.373 1209.4 382.953 1157.32 382.953H1090.24C1038.24 382.953 1011.79 348.346 1022.85 294.817L1038.64 218.282C1049.67 164.753 1090.43 130.174 1142.54 130.174H1209.72C1261.62 130.174 1288.1 164.753 1277.01 218.282ZM1188.38 218.282C1191.05 205.338 1189.5 202.953 1176.96 202.953H1144.99C1132.41 202.953 1129.88 205.366 1127.22 218.282L1111.4 294.817C1108.73 307.761 1110.3 310.146 1122.85 310.146H1154.82C1167.37 310.146 1169.92 307.733 1172.59 294.817L1188.38 218.282Z" fill="#5965E0"/>
<path d="M1829.65 198.154C1826.41 212.523 1818.59 225.363 1807.43 234.625L1762.33 273.016C1751.51 282.377 1737.91 287.642 1723.78 287.934H1661.34L1659.93 294.707C1657.26 307.651 1658.81 310.037 1671.38 310.037H1806.5L1791.47 382.843H1638.67C1586.67 382.843 1560.22 348.236 1571.27 294.707L1587.07 218.172C1598.13 164.643 1638.88 130.064 1690.96 130.064H1758.2C1810.07 130.174 1836.89 162.943 1829.65 198.154ZM1736.89 218.281C1739.55 205.338 1738.01 202.952 1725.43 202.952H1693.47C1680.95 202.925 1678.28 205.366 1675.62 218.281L1670.29 244.634H1723.04C1725.4 244.534 1727.67 243.641 1729.5 242.092C1731.33 240.542 1732.61 238.421 1733.16 236.051L1736.89 218.281Z" fill="#5965E0"/>
<path d="M1929.2 340.037C1924.3 363.757 1906.1 382.98 1878.59 382.98C1851.07 382.98 1840.84 363.784 1845.74 340.037C1850.64 316.289 1868.84 297.121 1896.35 297.121C1923.87 297.121 1934.02 316.289 1929.2 340.037Z" fill="#4CD62B"/>
<path d="M2119.19 130.174L2104.17 202.925L2066.87 382.925H1978.35L2015.65 202.925H1971.45L1986.5 130.146L2119.19 130.174ZM2053.45 82.98C2038.1 65.4297 2042.79 35.32 2063.86 15.7679C2084.93 -3.78417 2114.48 -5.37466 2129.9 12.203C2145.33 29.7807 2140.56 59.8904 2119.49 79.4425C2098.41 98.9946 2068.82 100.585 2053.45 82.98Z" fill="#5965E0"/>
<path d="M2261.29 166.563L2234.81 294.817C2232.14 307.761 2233.69 310.146 2246.23 310.146H2301.3L2286.27 382.953H2213.57C2161.57 382.953 2135.09 348.346 2146.15 294.817L2172.63 166.563H2139.14L2154.17 93.7571H2187.73L2200.04 34.141H2288.67L2276.36 93.7571H2346.05L2330.95 166.563H2261.29Z" fill="#5965E0"/>
<path d="M239.382 37.0749H351.747L258.269 495H145.904L239.382 37.0749Z" fill="#5965E0"/>
<path d="M404.253 37.0749H516.618L443.786 395.868H331.394L404.253 37.0749Z" fill="#5965E0"/>
<path d="M72.8588 37.0749H185.224L112.392 395.868H0L72.8588 37.0749Z" fill="#5965E0"/>
<path d="M1604.92 130.174L1440.74 382.952H1350.17L1290.28 130.174H1387.27L1413.35 296.161L1507.92 130.311L1604.92 130.174Z" fill="#5965E0"/>
</g>
<defs>
<clipPath id="clip0">
<rect width="2346" height="495" fill="white"/>
</clipPath>
</defs>
</svg>
