<svg width="1832" height="605" viewBox="0 0 1832 605" fill="none" xmlns="http://www.w3.org/2000/svg">
<rect width="605" height="605" rx="302.5" fill="#5965E0"/>
<path d="M283.505 132.344H369.593L297.976 472.656H211.888L283.505 132.344Z" fill="white"/>
<path d="M408.499 132.344H494.099L438.615 397.953H352.994L408.499 132.344Z" fill="white"/>
<path d="M159.489 132.344H245.09L189.605 397.953H103.984L159.489 132.344Z" fill="white"/>
<path d="M873.944 169.374H930.48C935.828 169.374 938.502 172.048 938.502 177.396V406.978C938.502 412.326 935.828 415 930.48 415H899.156C893.808 415 891.134 412.326 891.134 406.978V225.91H889.606L850.642 353.88C849.114 358.973 845.931 361.52 841.092 361.52H809.004C804.165 361.52 800.982 358.973 799.454 353.88L759.726 225.528H758.198V406.978C758.198 410.034 757.689 412.199 756.67 413.472C755.651 414.491 753.487 415 750.176 415H718.852C713.504 415 710.83 412.326 710.83 406.978V177.396C710.83 172.048 713.504 169.374 718.852 169.374H775.77C779.335 169.374 781.755 171.157 783.028 174.722L823.52 309.568H825.812L866.686 174.722C867.45 171.157 869.869 169.374 873.944 169.374ZM1077.39 415H1043.39C1023.28 415 1007.74 409.652 996.79 398.956C985.839 388.26 980.364 372.853 980.364 352.734V282.446C980.364 262.327 985.839 246.92 996.79 236.224C1007.74 225.528 1023.28 220.18 1043.39 220.18H1077.39C1097.26 220.18 1112.66 225.655 1123.61 236.606C1134.82 247.302 1140.42 262.582 1140.42 282.446V352.734C1140.42 372.598 1134.82 388.005 1123.61 398.956C1112.66 409.652 1097.26 415 1077.39 415ZM1050.65 373.362H1070.13C1078.28 373.362 1084.01 371.707 1087.32 368.396C1090.89 365.085 1092.67 359.355 1092.67 351.206V283.974C1092.67 275.825 1090.89 270.095 1087.32 266.784C1084.01 263.473 1078.28 261.818 1070.13 261.818H1050.65C1042.5 261.818 1036.77 263.473 1033.46 266.784C1030.15 270.095 1028.5 275.825 1028.5 283.974V351.206C1028.5 359.355 1030.15 365.085 1033.46 368.396C1036.77 371.707 1042.5 373.362 1050.65 373.362ZM1170.14 220.18H1203.75C1208.85 220.18 1211.9 222.854 1212.92 228.202L1245.77 371.834H1248.45L1280.54 228.202C1281.55 222.854 1284.74 220.18 1290.09 220.18H1323.7C1329.05 220.18 1330.96 222.854 1329.43 228.202L1281.3 406.596C1280.28 412.199 1276.84 415 1270.99 415H1222.47C1217.12 415 1213.69 412.199 1212.16 406.596L1164.41 228.202C1162.88 222.854 1164.79 220.18 1170.14 220.18ZM1500.86 415H1416.44C1396.32 415 1380.79 409.652 1369.84 398.956C1358.89 388.26 1353.41 372.853 1353.41 352.734V282.446C1353.41 262.327 1358.89 246.92 1369.84 236.224C1380.79 225.528 1396.32 220.18 1416.44 220.18H1446.62C1466.74 220.18 1482.27 225.528 1493.22 236.224C1504.17 246.92 1509.65 262.327 1509.65 282.446V330.96C1509.65 336.308 1506.97 338.982 1501.63 338.982H1405.74C1402.69 338.982 1401.16 340.383 1401.16 343.184V351.588C1401.16 359.483 1402.82 365.213 1406.13 368.778C1409.69 372.089 1415.55 373.744 1423.7 373.744H1500.86C1506.21 373.744 1508.88 376.545 1508.88 382.148V407.36C1508.88 410.161 1508.25 412.199 1506.97 413.472C1505.96 414.491 1503.92 415 1500.86 415ZM1405.74 306.512H1457.7C1460.5 306.512 1461.9 305.111 1461.9 302.31V283.974C1461.9 275.825 1460.24 270.095 1456.93 266.784C1453.62 263.473 1447.89 261.818 1439.74 261.818H1423.7C1415.55 261.818 1409.82 263.473 1406.51 266.784C1403.2 270.095 1401.54 275.825 1401.54 283.974V302.31C1401.54 305.111 1402.94 306.512 1405.74 306.512ZM1588.39 359.992V406.978C1588.39 412.326 1585.98 415 1581.14 415H1547.14C1542.05 415 1539.5 412.326 1539.5 406.978V360.374C1539.5 355.281 1542.05 352.734 1547.14 352.734H1581.14C1585.98 352.734 1588.39 355.153 1588.39 359.992ZM1625.87 187.328V154.094C1625.87 149.001 1628.42 146.454 1633.51 146.454H1666.74C1671.84 146.454 1674.38 148.873 1674.38 153.712V187.328C1674.38 192.421 1671.84 194.968 1666.74 194.968H1633.51C1628.42 194.968 1625.87 192.421 1625.87 187.328ZM1625.87 406.978V228.202C1625.87 222.854 1628.42 220.18 1633.51 220.18H1666.36C1671.71 220.18 1674.38 222.854 1674.38 228.202V406.978C1674.38 410.289 1673.75 412.453 1672.47 413.472C1671.45 414.491 1669.54 415 1666.74 415H1633.89C1628.54 415 1625.87 412.326 1625.87 406.978ZM1722.54 262.2H1707.26C1704.21 262.2 1702.04 261.691 1700.77 260.672C1699.75 259.653 1699.24 257.616 1699.24 254.56V228.202C1699.24 222.854 1701.91 220.18 1707.26 220.18H1722.54C1725.34 220.18 1726.74 218.779 1726.74 215.978V179.688C1726.74 174.34 1729.55 171.666 1735.15 171.666H1767.24C1772.58 171.666 1775.26 174.34 1775.26 179.688V215.978C1775.26 218.779 1776.79 220.18 1779.84 220.18H1809.64C1814.99 220.18 1817.66 222.854 1817.66 228.202V254.56C1817.66 257.361 1817.02 259.399 1815.75 260.672C1814.73 261.691 1812.69 262.2 1809.64 262.2H1779.84C1776.79 262.2 1775.26 263.601 1775.26 266.402V350.824C1775.26 358.719 1777.04 364.449 1780.61 368.014C1784.17 371.325 1790.03 372.98 1798.18 372.98H1813.46C1818.81 372.98 1821.48 375.654 1821.48 381.002V407.36C1821.48 410.161 1820.84 412.199 1819.57 413.472C1818.55 414.491 1816.51 415 1813.46 415H1790.16C1770.04 415 1754.38 409.652 1743.17 398.956C1732.22 388.26 1726.74 372.98 1726.74 353.116V266.402C1726.74 263.601 1725.34 262.2 1722.54 262.2Z" fill="#5965E0"/>
</svg>
